<svg width="1128" height="409" viewBox="0 0 1128 409" fill="none" xmlns="http://www.w3.org/2000/svg">
<g clip-path="url(#clip0_1_80)">
<g clip-path="url(#clip1_1_80)">
<path d="M96 4V92C96 94.2091 94.2091 96 92 96H4C1.79086 96 3.94317e-06 94.2091 3.8466e-06 92L0 4C-9.656e-08 1.79087 1.79086 3.94316e-06 4 3.8466e-06L92 0C94.2091 -9.6565e-08 96 1.79086 96 4Z" fill="url(#paint0_radial_1_80)" fill-opacity="0.04"/>
</g>
<g clip-path="url(#clip2_1_80)">
<path d="M95.0103 96V4.94845C95.0103 2.76208 93.2379 0.989685 91.0516 0.989685H0" stroke="url(#paint1_linear_1_80)" stroke-opacity="0.16" stroke-width="0.989691"/>
</g>
</g>
<g clip-path="url(#clip3_1_80)">
<g clip-path="url(#clip4_1_80)">
<path d="M1036 -7.62939e-06H1124C1126.21 -7.62939e-06 1128 1.79089 1128 3.99999V92C1128 94.2091 1126.21 96 1124 96L1036 96C1033.79 96 1032 94.2091 1032 92L1032 3.99999C1032 1.79089 1033.79 -7.62939e-06 1036 -7.62939e-06Z" fill="url(#paint2_radial_1_80)" fill-opacity="0.04"/>
</g>
<g clip-path="url(#clip5_1_80)">
<path d="M1128 0.989683H1036.95C1034.76 0.989683 1032.99 2.76212 1032.99 4.94845V96" stroke="url(#paint3_linear_1_80)" stroke-opacity="0.16" stroke-width="0.989691"/>
</g>
</g>
<g clip-path="url(#clip6_1_80)">
<g clip-path="url(#clip7_1_80)">
<path d="M204.8 198.05H116.8C114.591 198.05 112.8 196.259 112.8 194.05V106.05C112.8 103.841 114.591 102.05 116.8 102.05L204.8 102.05C207.009 102.05 208.8 103.841 208.8 106.05L208.8 194.05C208.8 196.259 207.009 198.05 204.8 198.05Z" fill="url(#paint4_radial_1_80)" fill-opacity="0.04"/>
</g>
<g clip-path="url(#clip8_1_80)">
<path d="M112.8 197.06H203.852C206.038 197.06 207.81 195.288 207.81 193.102V102.05" stroke="url(#paint5_linear_1_80)" stroke-opacity="0.16" stroke-width="0.989691"/>
</g>
</g>
<g clip-path="url(#clip9_1_80)">
<g clip-path="url(#clip10_1_80)">
<path d="M919.2 194.05V106.05C919.2 103.841 920.991 102.05 923.2 102.05L1011.2 102.05C1013.41 102.05 1015.2 103.841 1015.2 106.05L1015.2 194.05C1015.2 196.259 1013.41 198.05 1011.2 198.05L923.2 198.05C920.991 198.05 919.2 196.259 919.2 194.05Z" fill="url(#paint6_radial_1_80)" fill-opacity="0.04"/>
</g>
<g clip-path="url(#clip11_1_80)">
<path d="M920.19 102.05V193.102C920.19 195.288 921.962 197.06 924.148 197.06H1015.2" stroke="url(#paint7_linear_1_80)" stroke-opacity="0.16" stroke-width="0.989691"/>
</g>
</g>
<g clip-path="url(#clip12_1_80)">
<g clip-path="url(#clip13_1_80)">
<path d="M355.44 216.25V304.25C355.44 306.459 353.649 308.25 351.44 308.25H263.44C261.231 308.25 259.44 306.459 259.44 304.25L259.44 216.25C259.44 214.041 261.231 212.25 263.44 212.25L351.44 212.25C353.649 212.25 355.44 214.041 355.44 216.25Z" fill="url(#paint8_radial_1_80)" fill-opacity="0.04"/>
</g>
<g clip-path="url(#clip14_1_80)">
<path d="M354.45 308.25V217.199C354.45 215.012 352.678 213.24 350.492 213.24H259.44" stroke="url(#paint9_linear_1_80)" stroke-opacity="0.16" stroke-width="0.989691"/>
</g>
</g>
<g clip-path="url(#clip15_1_80)">
<g clip-path="url(#clip16_1_80)">
<path d="M776.56 212.25H864.56C866.769 212.25 868.56 214.041 868.56 216.25V304.25C868.56 306.459 866.769 308.25 864.56 308.25L776.56 308.25C774.351 308.25 772.56 306.459 772.56 304.25L772.56 216.25C772.56 214.041 774.351 212.25 776.56 212.25Z" fill="url(#paint10_radial_1_80)" fill-opacity="0.04"/>
</g>
<g clip-path="url(#clip17_1_80)">
<path d="M868.56 213.24H777.508C775.322 213.24 773.55 215.012 773.55 217.198V308.25" stroke="url(#paint11_linear_1_80)" stroke-opacity="0.16" stroke-width="0.989691"/>
</g>
</g>
<defs>
<radialGradient id="paint0_radial_1_80" cx="0" cy="0" r="1" gradientUnits="userSpaceOnUse" gradientTransform="translate(96 7.15256e-06) rotate(135) scale(84.8528)">
<stop stop-color="white"/>
<stop offset="1" stop-color="white" stop-opacity="0"/>
</radialGradient>
<linearGradient id="paint1_linear_1_80" x1="95.0103" y1="96" x2="4.79787e-06" y2="0.98968" gradientUnits="userSpaceOnUse">
<stop stop-color="white" stop-opacity="0"/>
<stop offset="0.5" stop-color="white"/>
<stop offset="1" stop-color="white" stop-opacity="0"/>
</linearGradient>
<radialGradient id="paint2_radial_1_80" cx="0" cy="0" r="1" gradientUnits="userSpaceOnUse" gradientTransform="translate(1032) rotate(45) scale(84.8528)">
<stop stop-color="white"/>
<stop offset="1" stop-color="white" stop-opacity="0"/>
</radialGradient>
<linearGradient id="paint3_linear_1_80" x1="1128" y1="0.989682" x2="1032.99" y2="96" gradientUnits="userSpaceOnUse">
<stop stop-color="white" stop-opacity="0"/>
<stop offset="0.5" stop-color="white"/>
<stop offset="1" stop-color="white" stop-opacity="0"/>
</linearGradient>
<radialGradient id="paint4_radial_1_80" cx="0" cy="0" r="1" gradientUnits="userSpaceOnUse" gradientTransform="translate(208.8 198.05) rotate(-135) scale(84.8528)">
<stop stop-color="white"/>
<stop offset="1" stop-color="white" stop-opacity="0"/>
</radialGradient>
<linearGradient id="paint5_linear_1_80" x1="112.8" y1="197.06" x2="207.81" y2="102.05" gradientUnits="userSpaceOnUse">
<stop stop-color="white" stop-opacity="0"/>
<stop offset="0.5" stop-color="white"/>
<stop offset="1" stop-color="white" stop-opacity="0"/>
</linearGradient>
<radialGradient id="paint6_radial_1_80" cx="0" cy="0" r="1" gradientUnits="userSpaceOnUse" gradientTransform="translate(919.2 198.05) rotate(-45) scale(84.8528)">
<stop stop-color="white"/>
<stop offset="1" stop-color="white" stop-opacity="0"/>
</radialGradient>
<linearGradient id="paint7_linear_1_80" x1="920.19" y1="102.05" x2="1015.2" y2="197.06" gradientUnits="userSpaceOnUse">
<stop stop-color="white" stop-opacity="0"/>
<stop offset="0.5" stop-color="white"/>
<stop offset="1" stop-color="white" stop-opacity="0"/>
</linearGradient>
<radialGradient id="paint8_radial_1_80" cx="0" cy="0" r="1" gradientUnits="userSpaceOnUse" gradientTransform="translate(355.44 212.25) rotate(135) scale(84.8528)">
<stop stop-color="white"/>
<stop offset="1" stop-color="white" stop-opacity="0"/>
</radialGradient>
<linearGradient id="paint9_linear_1_80" x1="354.45" y1="308.25" x2="259.44" y2="213.24" gradientUnits="userSpaceOnUse">
<stop stop-color="white" stop-opacity="0"/>
<stop offset="0.5" stop-color="white"/>
<stop offset="1" stop-color="white" stop-opacity="0"/>
</linearGradient>
<radialGradient id="paint10_radial_1_80" cx="0" cy="0" r="1" gradientUnits="userSpaceOnUse" gradientTransform="translate(772.56 212.25) rotate(45) scale(84.8528)">
<stop stop-color="white"/>
<stop offset="1" stop-color="white" stop-opacity="0"/>
</radialGradient>
<linearGradient id="paint11_linear_1_80" x1="868.56" y1="213.24" x2="773.55" y2="308.25" gradientUnits="userSpaceOnUse">
<stop stop-color="white" stop-opacity="0"/>
<stop offset="0.5" stop-color="white"/>
<stop offset="1" stop-color="white" stop-opacity="0"/>
</linearGradient>
<clipPath id="clip0_1_80">
<rect width="96" height="96" fill="white"/>
</clipPath>
<clipPath id="clip1_1_80">
<rect width="96" height="96" fill="white"/>
</clipPath>
<clipPath id="clip2_1_80">
<rect width="96" height="96" fill="white"/>
</clipPath>
<clipPath id="clip3_1_80">
<rect width="96" height="96" fill="white" transform="matrix(0 -1 1 0 1032 96)"/>
</clipPath>
<clipPath id="clip4_1_80">
<rect width="96" height="96" fill="white" transform="matrix(0 -1 1 0 1032 96)"/>
</clipPath>
<clipPath id="clip5_1_80">
<rect width="96" height="96" fill="white" transform="matrix(0 -1 1 0 1032 96)"/>
</clipPath>
<clipPath id="clip6_1_80">
<rect width="96" height="96" fill="white" transform="matrix(0 1 -1 0 208.8 102.05)"/>
</clipPath>
<clipPath id="clip7_1_80">
<rect width="96" height="96" fill="white" transform="matrix(0 1 -1 0 208.8 102.05)"/>
</clipPath>
<clipPath id="clip8_1_80">
<rect width="96" height="96" fill="white" transform="matrix(0 1 -1 0 208.8 102.05)"/>
</clipPath>
<clipPath id="clip9_1_80">
<rect width="96" height="96" fill="white" transform="matrix(-1 0 0 -1 1015.2 198.05)"/>
</clipPath>
<clipPath id="clip10_1_80">
<rect width="96" height="96" fill="white" transform="matrix(-1 0 0 -1 1015.2 198.05)"/>
</clipPath>
<clipPath id="clip11_1_80">
<rect width="96" height="96" fill="white" transform="matrix(-1 0 0 -1 1015.2 198.05)"/>
</clipPath>
<clipPath id="clip12_1_80">
<rect width="96" height="96" fill="white" transform="translate(259.44 212.25)"/>
</clipPath>
<clipPath id="clip13_1_80">
<rect width="96" height="96" fill="white" transform="translate(259.44 212.25)"/>
</clipPath>
<clipPath id="clip14_1_80">
<rect width="96" height="96" fill="white" transform="translate(259.44 212.25)"/>
</clipPath>
<clipPath id="clip15_1_80">
<rect width="96" height="96" fill="white" transform="matrix(0 -1 1 0 772.56 308.25)"/>
</clipPath>
<clipPath id="clip16_1_80">
<rect width="96" height="96" fill="white" transform="matrix(0 -1 1 0 772.56 308.25)"/>
</clipPath>
<clipPath id="clip17_1_80">
<rect width="96" height="96" fill="white" transform="matrix(0 -1 1 0 772.56 308.25)"/>
</clipPath>
</defs>
</svg>
