<svg width="714.1999267578125px" height="344.8000244140625px" xmlns="http://www.w3.org/2000/svg" viewBox="-107.09996337890624 -97.40001220703124 714.1999267578125 344.8000244140625" style="background: rgba(0, 0, 0, 0);" preserveAspectRatio="xMidYMid"><defs><linearGradient id="editing-outline-gradient" x1="-0.41354545764260087" x2="1.4135454576426008" y1="0.09326335692419985" y2="0.9067366430758002"><stop offset="0" stop-color="#000000"></stop><stop offset="1" stop-color="#000000"></stop></linearGradient><filter id="editing-outline" x="-100%" y="-100%" width="300%" height="300%"><feMorphology in="SourceGraphic" operator="dilate" radius="1" result="outline"></feMorphology><feComposite operator="out" in="outline" in2="SourceAlpha"></feComposite></filter></defs><g filter="url(#editing-outline)"><g transform="translate(-10.010021209716797, 142.28999710083008)"><path d="M11.12 0L11.12-117.65L46.68-117.65L76.09-60.53L104.82-117.65L140.39-117.65L140.39 0L104.82 0L104.82-62.76L83.11-21.72L68.57-21.72L46.68-62.76L46.68 0L11.12 0ZM205.20 1.37L205.20 1.37Q190.84 1.37 179.64-4.28L179.64-4.28L179.64-4.28Q168.44-9.92 162.19-19.92L162.19-19.92L162.19-19.92Q155.95-29.93 155.95-42.92L155.95-42.92L155.95-42.92Q155.95-55.92 162.28-65.92L162.28-65.92L162.28-65.92Q168.61-75.92 179.81-81.40L179.81-81.40L179.81-81.40Q191.01-86.87 205.37-86.87L205.37-86.87L205.37-86.87Q219.91-86.87 231.11-81.31L231.11-81.31L231.11-81.31Q242.31-75.75 248.46-65.84L248.46-65.84L248.46-65.84Q254.62-55.92 254.62-42.92L254.62-42.92L254.62-42.92Q254.62-29.75 248.38-19.75L248.38-19.75L248.38-19.75Q242.14-9.75 230.94-4.19L230.94-4.19L230.94-4.19Q219.74 1.37 205.20 1.37L205.20 1.37ZM205.54-24.28L205.54-24.28Q212.55-24.28 217.08-29.50L217.08-29.50L217.08-29.50Q221.62-34.71 221.62-42.92L221.62-42.92L221.62-42.92Q221.62-51.13 217.08-56.34L217.08-56.34L217.08-56.34Q212.55-61.56 205.54-61.56L205.54-61.56L205.54-61.56Q198.53-61.56 194.00-56.34L194.00-56.34L194.00-56.34Q189.47-51.13 189.47-42.92L189.47-42.92L189.47-42.92Q189.47-34.71 194.00-29.50L194.00-29.50L194.00-29.50Q198.53-24.28 205.54-24.28L205.54-24.28ZM267.44 0L267.44-112.69L303.52-117.99L303.52-68.06L303.52-68.06Q307.29-77.12 314.90-81.99L314.90-81.99L314.90-81.99Q322.51-86.87 333.28-86.87L333.28-86.87L333.28-86.87Q349.69-86.87 359.01-75.15L359.01-75.15L359.01-75.15Q368.33-63.44 368.33-42.75L368.33-42.75L368.33 0L332.42 0L332.42-46.34L332.42-46.34Q332.42-53.69 329.26-57.63L329.26-57.63L329.26-57.63Q326.10-61.56 320.45-61.56L320.45-61.56L320.45-61.56Q316.35-61.56 312.42-58.91L312.42-58.91L312.42-58.91Q308.48-56.26 306.00-51.30L306.00-51.30L306.00-51.30Q303.52-46.34 303.52-40.01L303.52-40.01L303.52 0L267.44 0ZM415.02 1.37L415.02 1.37Q400.65 1.37 392.62-7.87L392.62-7.87L392.62-7.87Q384.58-17.10 384.58-33.00L384.58-33.00L384.58-85.67L420.83-85.67L420.83-34.54L420.83-34.54Q420.83-30.61 422.97-28.47L422.97-28.47L422.97-28.47Q425.11-26.33 428.53-26.33L428.53-26.33L428.53-26.33Q431.95-26.33 435.54-28.39L435.54-28.39L437.42-4.62L437.42-4.62Q433.66-1.71 427.59-0.17L427.59-0.17L427.59-0.17Q421.51 1.37 415.02 1.37L415.02 1.37ZM402.70-98.50L402.70-98.50Q394.67-98.50 389.11-103.54L389.11-103.54L389.11-103.54Q383.55-108.59 383.55-115.94L383.55-115.94L383.55-115.94Q383.55-123.29 389.37-128.25L389.37-128.25L389.37-128.25Q395.18-133.21 402.70-133.21L402.70-133.21L402.70-133.21Q410.57-133.21 416.30-128.08L416.30-128.08L416.30-128.08Q422.03-122.95 422.03-115.94L422.03-115.94L422.03-115.94Q422.03-108.41 416.21-103.46L416.21-103.46L416.21-103.46Q410.40-98.50 402.70-98.50L402.70-98.50ZM484.79 1.37L484.79 1.37Q469.74 1.37 461.36-7.27L461.36-7.27L461.36-7.27Q452.98-15.90 452.98-31.12L452.98-31.12L452.98-64.47L442.04-64.47L442.04-85.67L455.54-85.67L471.45-117.99L488.72-117.99L488.72-85.67L508.55-85.67L508.55-64.47L488.72-64.47L488.72-35.40L488.72-35.40Q488.72-31.12 491.45-28.73L491.45-28.73L491.45-28.73Q494.19-26.33 499.15-26.33L499.15-26.33L499.15-26.33Q503.77-26.33 507.53-28.39L507.53-28.39L508.90-4.45L508.90-4.45Q504.62-1.88 497.87-0.26L497.87-0.26L497.87-0.26Q491.11 1.37 484.79 1.37L484.79 1.37Z" fill="url(#editing-outline-gradient)"></path></g></g><style>text {
  font-size: 64px;
  font-family: Arial Black;
  dominant-baseline: central;
  text-anchor: middle;
}</style></svg>