<svg width="212" height="148" viewBox="0 0 212 148" fill="none" xmlns="http://www.w3.org/2000/svg">
<g filter="url(#filter0_d_1_817)">
<rect x="1" y="1" width="210" height="146" rx="12" fill="url(#paint0_linear_1_817)" shape-rendering="crispEdges"/>
<path d="M152.201 14.791C152.197 15.0703 152.172 15.3532 152.126 15.6396C152.083 15.9225 152.015 16.1965 151.922 16.4614C151.829 16.7264 151.709 16.9735 151.562 17.2026C151.419 17.4318 151.247 17.6323 151.046 17.8042C150.846 17.9761 150.615 18.1121 150.353 18.2124C150.096 18.3091 149.805 18.3574 149.483 18.3574C149.161 18.3574 148.869 18.3091 148.608 18.2124C148.35 18.1121 148.121 17.9761 147.92 17.8042C147.72 17.6323 147.546 17.4318 147.399 17.2026C147.252 16.9699 147.132 16.721 147.039 16.4561C146.943 16.1911 146.871 15.9172 146.825 15.6343C146.778 15.3514 146.753 15.0703 146.749 14.791V13.8994C146.753 13.6201 146.776 13.339 146.819 13.0562C146.866 12.7697 146.937 12.494 147.034 12.229C147.127 11.964 147.245 11.717 147.388 11.4878C147.535 11.255 147.709 11.0509 147.909 10.8755C148.11 10.7036 148.339 10.5693 148.597 10.4727C148.858 10.3724 149.15 10.3223 149.472 10.3223C149.795 10.3223 150.087 10.3724 150.348 10.4727C150.609 10.5693 150.84 10.7036 151.041 10.8755C151.241 11.0474 151.413 11.2497 151.556 11.4824C151.703 11.7116 151.825 11.9587 151.922 12.2236C152.015 12.4886 152.083 12.7643 152.126 13.0508C152.172 13.3372 152.197 13.6201 152.201 13.8994V14.791ZM151.218 13.8887C151.214 13.7025 151.202 13.5091 151.18 13.3086C151.159 13.1045 151.123 12.9022 151.073 12.7017C151.019 12.5047 150.95 12.3167 150.864 12.1377C150.778 11.9551 150.67 11.7939 150.541 11.6543C150.412 11.5182 150.26 11.4108 150.085 11.332C149.909 11.2497 149.705 11.2085 149.472 11.2085C149.243 11.2085 149.041 11.2497 148.866 11.332C148.69 11.4144 148.538 11.5236 148.409 11.6597C148.28 11.7993 148.173 11.9604 148.087 12.1431C148.001 12.3221 147.933 12.5101 147.883 12.707C147.829 12.9076 147.79 13.1099 147.764 13.314C147.743 13.5145 147.73 13.7061 147.727 13.8887V14.791C147.73 14.9736 147.743 15.167 147.764 15.3711C147.79 15.5752 147.829 15.7757 147.883 15.9727C147.936 16.1732 148.006 16.3647 148.092 16.5474C148.178 16.73 148.285 16.8893 148.414 17.0254C148.543 17.165 148.695 17.276 148.871 17.3584C149.046 17.4408 149.25 17.4819 149.483 17.4819C149.716 17.4819 149.92 17.4408 150.096 17.3584C150.275 17.276 150.429 17.165 150.557 17.0254C150.683 16.8893 150.787 16.7318 150.869 16.5527C150.955 16.3701 151.025 16.1785 151.078 15.978C151.129 15.7811 151.163 15.5806 151.18 15.3765C151.202 15.1724 151.214 14.9772 151.218 14.791V13.8887ZM156.31 15.0596H154.747V18.25H153.759V10.4297H156.052C156.417 10.4368 156.761 10.4888 157.083 10.5854C157.406 10.6821 157.688 10.8271 157.932 11.0205C158.172 11.2139 158.36 11.4574 158.496 11.751C158.636 12.041 158.705 12.383 158.705 12.7769C158.705 13.0311 158.668 13.2638 158.593 13.4751C158.521 13.6864 158.421 13.8779 158.292 14.0498C158.163 14.2217 158.009 14.3739 157.83 14.5063C157.651 14.6388 157.454 14.7516 157.239 14.8447L158.899 18.1855L158.893 18.25H157.846L156.31 15.0596ZM154.747 14.2432H156.079C156.301 14.2396 156.51 14.2056 156.707 14.1411C156.904 14.0731 157.078 13.9764 157.228 13.8511C157.375 13.7257 157.492 13.5736 157.577 13.3945C157.663 13.2119 157.706 13.0024 157.706 12.7661C157.706 12.5155 157.665 12.297 157.583 12.1108C157.5 11.9211 157.386 11.7617 157.239 11.6328C157.092 11.5075 156.917 11.4126 156.713 11.3481C156.512 11.2837 156.292 11.2497 156.052 11.2461H154.747V14.2432ZM160.327 10.4297H165.054V11.2944H163.18V17.3906H165.054V18.25H160.327V17.3906H162.159V11.2944H160.327V10.4297ZM171.993 17.2241C171.872 17.3674 171.743 17.498 171.607 17.6162C171.471 17.7308 171.329 17.8311 171.182 17.917C170.932 18.0674 170.661 18.1784 170.371 18.25C170.081 18.3252 169.777 18.361 169.458 18.3574C169.136 18.3538 168.839 18.3055 168.567 18.2124C168.298 18.1157 168.056 17.9832 167.842 17.8149C167.627 17.6502 167.439 17.4551 167.278 17.2295C167.117 17.0039 166.982 16.7586 166.875 16.4937C166.764 16.2323 166.68 15.9583 166.622 15.6719C166.569 15.3818 166.54 15.09 166.536 14.7964V13.8887C166.54 13.5986 166.565 13.3104 166.612 13.0239C166.662 12.7339 166.737 12.4564 166.837 12.1914C166.937 11.9264 167.063 11.6812 167.213 11.4556C167.364 11.2264 167.544 11.0277 167.756 10.8594C167.963 10.6947 168.2 10.564 168.465 10.4673C168.73 10.3706 169.027 10.3223 169.356 10.3223C169.721 10.3223 170.058 10.3796 170.366 10.4941C170.674 10.6051 170.943 10.7645 171.172 10.9722C171.401 11.1834 171.585 11.4377 171.725 11.7349C171.865 12.0285 171.951 12.3579 171.983 12.7231H171C170.96 12.4976 170.9 12.2899 170.817 12.1001C170.735 11.9067 170.627 11.742 170.495 11.606C170.359 11.4699 170.198 11.3643 170.012 11.2891C169.825 11.2103 169.609 11.1709 169.362 11.1709C169.125 11.1709 168.916 11.2121 168.733 11.2944C168.551 11.3732 168.391 11.4806 168.255 11.6167C168.119 11.7528 168.006 11.9121 167.917 12.0947C167.827 12.2738 167.754 12.4635 167.697 12.6641C167.639 12.8646 167.598 13.0687 167.573 13.2764C167.548 13.484 167.535 13.6846 167.535 13.8779V14.7964C167.539 14.9933 167.555 15.1974 167.584 15.4087C167.616 15.6164 167.664 15.8205 167.729 16.021C167.793 16.2215 167.876 16.4113 167.976 16.5903C168.076 16.7694 168.198 16.9269 168.341 17.063C168.481 17.1991 168.644 17.3083 168.83 17.3906C169.016 17.4694 169.227 17.5106 169.464 17.5142C169.6 17.5177 169.741 17.5124 169.888 17.498C170.038 17.4837 170.183 17.4551 170.323 17.4121C170.463 17.3691 170.593 17.3118 170.715 17.2402C170.837 17.165 170.939 17.0684 171.021 16.9502L171.032 15.1938H169.442V14.356H171.977L171.993 17.2241ZM173.54 10.4297H178.267V11.2944H176.392V17.3906H178.267V18.25H173.54V17.3906H175.372V11.2944H173.54V10.4297ZM185.045 18.25H184.035L181.001 12.4062L180.985 18.25H179.98V10.4297H180.99L184.025 16.2627L184.041 10.4297H185.045V18.25ZM190.486 16.2251H187.876L187.247 18.25H186.254L188.778 10.4297H189.611L192.092 18.25H191.104L190.486 16.2251ZM188.144 15.3604H190.223L189.192 11.9658L188.144 15.3604ZM194.482 17.4067H198.306V18.25H193.489V10.4297H194.482V17.4067Z" fill="#FAFAFA"/>
<path d="M134.18 28V1H132.18V28H134.18Z" fill="white" fill-opacity="0.1" mask="url(#path-4-inside-2_1_817)"/>
<path d="M211 28H1V30H211V28Z" fill="white" fill-opacity="0.1" mask="url(#path-2-inside-1_1_817)"/>
<g clip-path="url(#clip0_1_817)">
<path opacity="0.2" d="M188 60.5C192.418 60.5 196 56.9183 196 52.5C196 48.0817 192.418 44.5 188 44.5C183.582 44.5 180 48.0817 180 52.5C180 56.9183 183.582 60.5 188 60.5Z" fill="white"/>
<path d="M50.5858 48.9142L14.5858 84.9142C14.2107 85.2893 14 85.798 14 86.3284V129.5C14 130.605 14.8954 131.5 16 131.5H196C197.105 131.5 198 130.605 198 129.5V94.8284C198 93.0466 195.846 92.1543 194.586 93.4142L193.586 94.4142C193.211 94.7893 193 95.298 193 95.8284V103.172C193 103.702 192.789 104.211 192.414 104.586L191.586 105.414C191.211 105.789 190.702 106 190.172 106H179.328C178.798 106 178.289 106.211 177.914 106.586L169.914 114.586C169.133 115.367 167.867 115.367 167.086 114.586L147.914 95.4142C147.133 94.6332 145.867 94.6332 145.086 95.4142L141.914 98.5858C141.133 99.3668 139.867 99.3668 139.086 98.5858L133 92.5L104.414 63.9142C103.633 63.1332 102.367 63.1332 101.586 63.9142L86.4142 79.0858C85.6332 79.8668 84.3668 79.8668 83.5858 79.0858L53.4142 48.9142C52.6332 48.1332 51.3668 48.1332 50.5858 48.9142Z" fill="#9E9E9E"/>
</g>
</g>
<defs>
<filter id="filter0_d_1_817" x="0" y="0" width="212" height="148" filterUnits="userSpaceOnUse" color-interpolation-filters="sRGB">
<feFlood flood-opacity="0" result="BackgroundImageFix"/>
<feColorMatrix in="SourceAlpha" type="matrix" values="0 0 0 0 0 0 0 0 0 0 0 0 0 0 0 0 0 0 127 0" result="hardAlpha"/>
<feMorphology radius="1" operator="dilate" in="SourceAlpha" result="effect1_dropShadow_1_817"/>
<feOffset/>
<feComposite in2="hardAlpha" operator="out"/>
<feColorMatrix type="matrix" values="0 0 0 0 1 0 0 0 0 1 0 0 0 0 1 0 0 0 0.2 0"/>
<feBlend mode="normal" in2="BackgroundImageFix" result="effect1_dropShadow_1_817"/>
<feBlend mode="normal" in="SourceGraphic" in2="effect1_dropShadow_1_817" result="shape"/>
</filter>
<linearGradient id="paint0_linear_1_817" x1="211" y1="0.99999" x2="35.3265" y2="180.58" gradientUnits="userSpaceOnUse">
<stop stop-color="#2C2C2C" stop-opacity="0.75"/>
<stop offset="1" stop-opacity="0.75"/>
</linearGradient>
<clipPath id="clip0_1_817">
<rect width="184" height="88" fill="white" transform="translate(14 44)"/>
</clipPath>
</defs>
</svg>
