<svg width="212" height="148" viewBox="0 0 212 148" fill="none" xmlns="http://www.w3.org/2000/svg">
<g filter="url(#filter0_d_1_1471)">
<rect x="1" y="1" width="210" height="146" rx="12" fill="url(#paint0_linear_1_1471)" shape-rendering="crispEdges"/>
<path d="M156.837 18.25H155.844V11.6973L153.797 12.4761V11.5684L156.757 10.4297H156.837V18.25ZM164.249 15.6235H165.34V16.4346H164.249V18.25H163.256V16.4346H159.689V15.8491L163.191 10.4297H164.249V15.6235ZM160.79 15.6235H163.256V11.751L163.095 12.0518L160.79 15.6235ZM170.856 15.6235H171.946V16.4346H170.856V18.25H169.862V16.4346H166.296V15.8491L169.798 10.4297H170.856V15.6235ZM167.397 15.6235H169.862V11.751L169.701 12.0518L167.397 15.6235ZM178.343 15.2583C178.343 15.756 178.286 16.1982 178.171 16.585C178.057 16.9681 177.892 17.2904 177.677 17.5518C177.462 17.8167 177.199 18.0173 176.888 18.1533C176.576 18.2894 176.22 18.3574 175.819 18.3574C175.421 18.3574 175.065 18.2912 174.75 18.1587C174.435 18.0226 174.168 17.8203 173.95 17.5518C173.731 17.2904 173.565 16.9681 173.45 16.585C173.335 16.1982 173.278 15.756 173.278 15.2583V13.4268C173.278 12.929 173.335 12.4886 173.45 12.1055C173.565 11.7188 173.731 11.3929 173.95 11.1279C174.164 10.863 174.428 10.6624 174.739 10.5264C175.054 10.3867 175.41 10.3169 175.808 10.3169C176.209 10.3169 176.565 10.3867 176.877 10.5264C177.192 10.6624 177.459 10.863 177.677 11.1279C177.892 11.3929 178.057 11.7188 178.171 12.1055C178.286 12.4886 178.343 12.929 178.343 13.4268V15.2583ZM174.277 15.0596L177.323 12.7231C177.294 12.4653 177.242 12.238 177.167 12.041C177.095 11.8405 176.997 11.674 176.871 11.5415C176.75 11.4054 176.599 11.3034 176.42 11.2354C176.245 11.1673 176.041 11.1333 175.808 11.1333C175.572 11.1333 175.362 11.1709 175.18 11.2461C175 11.3177 174.848 11.4233 174.723 11.563C174.573 11.7384 174.46 11.9658 174.385 12.2451C174.313 12.5208 174.277 12.8413 174.277 13.2065V14.5171C174.277 14.6066 174.277 14.6961 174.277 14.7856C174.277 14.8752 174.277 14.9665 174.277 15.0596ZM177.344 15.4678V14.3613C177.344 14.3076 177.344 14.2056 177.344 14.0552C177.344 13.9012 177.344 13.7741 177.344 13.6738L174.304 15.9995C174.336 16.2609 174.394 16.4919 174.476 16.6924C174.558 16.8893 174.666 17.0522 174.798 17.1812C174.92 17.3029 175.067 17.396 175.239 17.4604C175.41 17.5213 175.604 17.5518 175.819 17.5518C176.044 17.5518 176.245 17.5177 176.42 17.4497C176.596 17.3817 176.744 17.2832 176.866 17.1543C177.031 16.9788 177.151 16.7497 177.226 16.4668C177.305 16.1839 177.344 15.8509 177.344 15.4678ZM181.125 15.1133V18.25H180.132V10.4297H182.667C183.018 10.4368 183.349 10.4924 183.66 10.5962C183.976 10.7 184.251 10.8504 184.488 11.0474C184.724 11.2443 184.91 11.4878 185.046 11.7778C185.186 12.0679 185.256 12.4009 185.256 12.7769C185.256 13.1528 185.186 13.4858 185.046 13.7759C184.91 14.0623 184.724 14.304 184.488 14.501C184.251 14.6979 183.976 14.8483 183.66 14.9521C183.349 15.056 183.018 15.1097 182.667 15.1133H181.125ZM181.125 14.2969H182.667C182.896 14.2933 183.107 14.2575 183.301 14.1895C183.494 14.1178 183.662 14.0176 183.805 13.8887C183.949 13.7598 184.06 13.604 184.138 13.4214C184.221 13.2352 184.262 13.0239 184.262 12.7876C184.262 12.5513 184.221 12.3382 184.138 12.1484C184.06 11.9587 183.951 11.7975 183.811 11.665C183.668 11.5326 183.498 11.4305 183.301 11.3589C183.107 11.2873 182.896 11.2497 182.667 11.2461H181.125V14.2969ZM189.069 13.4966L190.756 10.4297H191.927L189.655 14.3076L191.98 18.25H190.82L189.091 15.124L187.356 18.25H186.18L188.511 14.3076L186.239 10.4297H187.404L189.069 13.4966Z" fill="#FAFAFA"/>
<path d="M140.68 28V1H138.68V28H140.68Z" fill="white" fill-opacity="0.1" mask="url(#path-4-inside-2_1_1471)"/>
<path d="M211 28H1V30H211V28Z" fill="white" fill-opacity="0.1" mask="url(#path-2-inside-1_1_1471)"/>
<g clip-path="url(#clip0_1_1471)">
<path opacity="0.2" d="M188 60.5C192.418 60.5 196 56.9183 196 52.5C196 48.0817 192.418 44.5 188 44.5C183.582 44.5 180 48.0817 180 52.5C180 56.9183 183.582 60.5 188 60.5Z" fill="white"/>
<path d="M50.5858 48.9142L14.5858 84.9142C14.2107 85.2893 14 85.798 14 86.3284V129.5C14 130.605 14.8954 131.5 16 131.5H196C197.105 131.5 198 130.605 198 129.5V94.8284C198 93.0466 195.846 92.1543 194.586 93.4142L193.586 94.4142C193.211 94.7893 193 95.298 193 95.8284V103.172C193 103.702 192.789 104.211 192.414 104.586L191.586 105.414C191.211 105.789 190.702 106 190.172 106H179.328C178.798 106 178.289 106.211 177.914 106.586L169.914 114.586C169.133 115.367 167.867 115.367 167.086 114.586L147.914 95.4142C147.133 94.6332 145.867 94.6332 145.086 95.4142L141.914 98.5858C141.133 99.3668 139.867 99.3668 139.086 98.5858L133 92.5L104.414 63.9142C103.633 63.1332 102.367 63.1332 101.586 63.9142L86.4142 79.0858C85.6332 79.8668 84.3668 79.8668 83.5858 79.0858L53.4142 48.9142C52.6332 48.1332 51.3668 48.1332 50.5858 48.9142Z" fill="#9E9E9E"/>
</g>
</g>
<defs>
<filter id="filter0_d_1_1471" x="0" y="0" width="212" height="148" filterUnits="userSpaceOnUse" color-interpolation-filters="sRGB">
<feFlood flood-opacity="0" result="BackgroundImageFix"/>
<feColorMatrix in="SourceAlpha" type="matrix" values="0 0 0 0 0 0 0 0 0 0 0 0 0 0 0 0 0 0 127 0" result="hardAlpha"/>
<feMorphology radius="1" operator="dilate" in="SourceAlpha" result="effect1_dropShadow_1_1471"/>
<feOffset/>
<feComposite in2="hardAlpha" operator="out"/>
<feColorMatrix type="matrix" values="0 0 0 0 1 0 0 0 0 1 0 0 0 0 1 0 0 0 0.2 0"/>
<feBlend mode="normal" in2="BackgroundImageFix" result="effect1_dropShadow_1_1471"/>
<feBlend mode="normal" in="SourceGraphic" in2="effect1_dropShadow_1_1471" result="shape"/>
</filter>
<linearGradient id="paint0_linear_1_1471" x1="211" y1="0.99999" x2="35.3265" y2="180.58" gradientUnits="userSpaceOnUse">
<stop stop-color="#2C2C2C" stop-opacity="0.75"/>
<stop offset="1" stop-opacity="0.75"/>
</linearGradient>
<clipPath id="clip0_1_1471">
<rect width="184" height="88" fill="white" transform="translate(14 44)"/>
</clipPath>
</defs>
</svg>
