<svg width="212" height="148" viewBox="0 0 212 148" fill="none" xmlns="http://www.w3.org/2000/svg">
<g filter="url(#filter0_d_1_1479)">
<rect x="1" y="1" width="210" height="146" rx="12" fill="url(#paint0_linear_1_1479)" shape-rendering="crispEdges"/>
<path d="M157.775 13.8618H158.484C158.734 13.8618 158.955 13.8278 159.144 13.7598C159.338 13.6917 159.501 13.5986 159.633 13.4805C159.762 13.3623 159.86 13.2209 159.929 13.0562C159.997 12.8914 160.031 12.7106 160.031 12.5137C160.031 12.2809 160 12.0786 159.939 11.9067C159.878 11.7313 159.789 11.5863 159.671 11.4717C159.556 11.3607 159.413 11.2783 159.241 11.2246C159.073 11.1673 158.879 11.1387 158.661 11.1387C158.45 11.1387 158.256 11.1709 158.081 11.2354C157.909 11.2962 157.762 11.3857 157.64 11.5039C157.515 11.6221 157.418 11.7635 157.35 11.9282C157.282 12.0929 157.248 12.2773 157.248 12.4814H156.249C156.249 12.1842 156.307 11.9049 156.421 11.6436C156.539 11.3786 156.704 11.1476 156.915 10.9507C157.127 10.7573 157.379 10.6051 157.673 10.4941C157.97 10.3796 158.299 10.3223 158.661 10.3223C159.012 10.3223 159.332 10.3706 159.622 10.4673C159.912 10.5604 160.161 10.7 160.369 10.8862C160.577 11.0724 160.738 11.3034 160.852 11.5791C160.967 11.8548 161.024 12.1735 161.024 12.5352C161.024 12.6855 161.001 12.8413 160.954 13.0024C160.908 13.1636 160.836 13.3193 160.74 13.4697C160.643 13.6237 160.518 13.7687 160.364 13.9048C160.213 14.0373 160.032 14.1483 159.821 14.2378C160.075 14.3201 160.287 14.4276 160.455 14.5601C160.627 14.6925 160.765 14.8411 160.868 15.0059C160.969 15.1706 161.039 15.3442 161.078 15.5269C161.121 15.7095 161.142 15.8903 161.142 16.0693C161.142 16.4346 161.08 16.7586 160.954 17.0415C160.829 17.3244 160.655 17.5625 160.433 17.7559C160.211 17.9528 159.948 18.1032 159.644 18.207C159.343 18.3073 159.017 18.3574 158.666 18.3574C158.323 18.3574 157.999 18.3091 157.694 18.2124C157.393 18.1157 157.132 17.9743 156.91 17.7881C156.688 17.6019 156.511 17.3745 156.378 17.106C156.249 16.8374 156.185 16.5312 156.185 16.1875H157.179C157.179 16.3916 157.213 16.5778 157.281 16.7461C157.352 16.9144 157.452 17.0576 157.581 17.1758C157.71 17.2939 157.866 17.3853 158.049 17.4497C158.235 17.5142 158.441 17.5464 158.666 17.5464C158.892 17.5464 159.096 17.5177 159.279 17.4604C159.461 17.3996 159.617 17.3083 159.746 17.1865C159.875 17.0648 159.973 16.9144 160.041 16.7354C160.113 16.5527 160.149 16.3379 160.149 16.0908C160.149 15.8473 160.108 15.6379 160.025 15.4624C159.946 15.2834 159.835 15.1348 159.692 15.0166C159.545 14.8984 159.368 14.8107 159.16 14.7534C158.956 14.6961 158.731 14.6675 158.484 14.6675H157.775V13.8618ZM168.173 10.9883L164.934 18.25H163.892L167.12 11.2998H162.888V10.4297H168.173V10.9883ZM170.182 14.3291L170.574 10.4297H174.586V11.3965H171.412L171.192 13.4805C171.346 13.391 171.53 13.3122 171.745 13.2441C171.96 13.1761 172.209 13.1421 172.492 13.1421C172.853 13.1421 173.177 13.2048 173.464 13.3301C173.75 13.4554 173.994 13.6309 174.194 13.8564C174.395 14.0856 174.549 14.3613 174.656 14.6836C174.763 15.0059 174.817 15.3639 174.817 15.7578C174.817 16.1302 174.767 16.4757 174.667 16.7944C174.567 17.1131 174.416 17.387 174.216 17.6162C174.012 17.849 173.756 18.0316 173.448 18.1641C173.14 18.293 172.778 18.3574 172.363 18.3574C172.044 18.3574 171.743 18.3127 171.46 18.2231C171.177 18.1336 170.927 17.9993 170.708 17.8203C170.486 17.6413 170.304 17.4157 170.16 17.1436C170.021 16.8714 169.933 16.5545 169.897 16.1929H170.843C170.903 16.6369 171.066 16.9735 171.331 17.2026C171.6 17.4318 171.944 17.5464 172.363 17.5464C172.599 17.5464 172.808 17.5052 172.991 17.4229C173.174 17.3369 173.328 17.2152 173.453 17.0576C173.575 16.9036 173.666 16.7174 173.727 16.499C173.791 16.2806 173.824 16.0371 173.824 15.7686C173.824 15.5251 173.788 15.2977 173.716 15.0864C173.648 14.8752 173.548 14.6908 173.415 14.5332C173.283 14.3792 173.12 14.2575 172.927 14.168C172.733 14.0785 172.511 14.0337 172.261 14.0337C172.096 14.0337 171.953 14.0462 171.831 14.0713C171.713 14.0928 171.605 14.125 171.509 14.168C171.412 14.2109 171.321 14.2629 171.235 14.3237C171.152 14.3846 171.066 14.4544 170.977 14.5332L170.182 14.3291ZM177.519 15.1133V18.25H176.525V10.4297H179.06C179.411 10.4368 179.742 10.4924 180.054 10.5962C180.369 10.7 180.645 10.8504 180.881 11.0474C181.117 11.2443 181.304 11.4878 181.44 11.7778C181.579 12.0679 181.649 12.4009 181.649 12.7769C181.649 13.1528 181.579 13.4858 181.44 13.7759C181.304 14.0623 181.117 14.304 180.881 14.501C180.645 14.6979 180.369 14.8483 180.054 14.9521C179.742 15.056 179.411 15.1097 179.06 15.1133H177.519ZM177.519 14.2969H179.06C179.29 14.2933 179.501 14.2575 179.694 14.1895C179.888 14.1178 180.056 14.0176 180.199 13.8887C180.342 13.7598 180.453 13.604 180.532 13.4214C180.614 13.2352 180.656 13.0239 180.656 12.7876C180.656 12.5513 180.614 12.3382 180.532 12.1484C180.453 11.9587 180.344 11.7975 180.204 11.665C180.061 11.5326 179.891 11.4305 179.694 11.3589C179.501 11.2873 179.29 11.2497 179.06 11.2461H177.519V14.2969ZM185.463 13.4966L187.149 10.4297H188.32L186.048 14.3076L188.374 18.25H187.214L185.484 15.124L183.749 18.25H182.573L184.904 14.3076L182.632 10.4297H183.798L185.463 13.4966Z" fill="#FAFAFA"/>
<path d="M143.68 28V1H141.68V28H143.68Z" fill="white" fill-opacity="0.1" mask="url(#path-4-inside-2_1_1479)"/>
<path d="M211 28H1V30H211V28Z" fill="white" fill-opacity="0.1" mask="url(#path-2-inside-1_1_1479)"/>
<g clip-path="url(#clip0_1_1479)">
<path opacity="0.2" d="M188 60.5C192.418 60.5 196 56.9183 196 52.5C196 48.0817 192.418 44.5 188 44.5C183.582 44.5 180 48.0817 180 52.5C180 56.9183 183.582 60.5 188 60.5Z" fill="white"/>
<path d="M50.5858 48.9142L14.5858 84.9142C14.2107 85.2893 14 85.798 14 86.3284V129.5C14 130.605 14.8954 131.5 16 131.5H196C197.105 131.5 198 130.605 198 129.5V94.8284C198 93.0466 195.846 92.1543 194.586 93.4142L193.586 94.4142C193.211 94.7893 193 95.298 193 95.8284V103.172C193 103.702 192.789 104.211 192.414 104.586L191.586 105.414C191.211 105.789 190.702 106 190.172 106H179.328C178.798 106 178.289 106.211 177.914 106.586L169.914 114.586C169.133 115.367 167.867 115.367 167.086 114.586L147.914 95.4142C147.133 94.6332 145.867 94.6332 145.086 95.4142L141.914 98.5858C141.133 99.3668 139.867 99.3668 139.086 98.5858L133 92.5L104.414 63.9142C103.633 63.1332 102.367 63.1332 101.586 63.9142L86.4142 79.0858C85.6332 79.8668 84.3668 79.8668 83.5858 79.0858L53.4142 48.9142C52.6332 48.1332 51.3668 48.1332 50.5858 48.9142Z" fill="#9E9E9E"/>
</g>
</g>
<defs>
<filter id="filter0_d_1_1479" x="0" y="0" width="212" height="148" filterUnits="userSpaceOnUse" color-interpolation-filters="sRGB">
<feFlood flood-opacity="0" result="BackgroundImageFix"/>
<feColorMatrix in="SourceAlpha" type="matrix" values="0 0 0 0 0 0 0 0 0 0 0 0 0 0 0 0 0 0 127 0" result="hardAlpha"/>
<feMorphology radius="1" operator="dilate" in="SourceAlpha" result="effect1_dropShadow_1_1479"/>
<feOffset/>
<feComposite in2="hardAlpha" operator="out"/>
<feColorMatrix type="matrix" values="0 0 0 0 1 0 0 0 0 1 0 0 0 0 1 0 0 0 0.2 0"/>
<feBlend mode="normal" in2="BackgroundImageFix" result="effect1_dropShadow_1_1479"/>
<feBlend mode="normal" in="SourceGraphic" in2="effect1_dropShadow_1_1479" result="shape"/>
</filter>
<linearGradient id="paint0_linear_1_1479" x1="211" y1="0.99999" x2="35.3265" y2="180.58" gradientUnits="userSpaceOnUse">
<stop stop-color="#2C2C2C" stop-opacity="0.75"/>
<stop offset="1" stop-opacity="0.75"/>
</linearGradient>
<clipPath id="clip0_1_1479">
<rect width="184" height="88" fill="white" transform="translate(14 44)"/>
</clipPath>
</defs>
</svg>
